<svg xmlns="http://www.w3.org/2000/svg" xmlns:xlink="http://www.w3.org/1999/xlink" version="1.1" x="0px" y="0px" viewBox="0 0 100 125" style="enable-background:new 0 0 100 100;" xml:space="preserve"><style type="text/css">
	.st0{fill:none;}
</style><g><path d="M34.7,69.3c-7.6,0-13.7-6.2-13.7-13.7c0-7.6,6.2-13.7,13.7-13.7S48.4,48,48.4,55.5C48.4,63.1,42.3,69.3,34.7,69.3z    M34.7,43.6c-6.6,0-11.9,5.3-11.9,11.9s5.3,11.9,11.9,11.9s11.9-5.3,11.9-11.9S41.3,43.6,34.7,43.6z"/></g><g><g><path d="M54,89.7H15.4c-1.3,0-2.4-0.6-3.2-1.7c-0.7-1-0.9-2.4-0.5-3.6c2.6-7.3,8.6-13,16.1-15.2c0.4-0.1,0.9-0.1,1.3,0.1    c1.7,0.9,3.6,1.4,5.6,1.4c2,0,3.8-0.5,5.6-1.4c0.4-0.2,0.9-0.3,1.3-0.1c7.5,2.2,13.5,7.9,16.1,15.2v0c0.4,1.2,0.2,2.5-0.5,3.6    C56.5,89.1,55.3,89.7,54,89.7z M27.8,71.2c-6.6,2.1-12,7.3-14.3,13.9c-0.2,0.6-0.2,1.2,0.1,1.8c0.4,0.7,1.1,1.1,1.8,1.1l38.5,0    c0.6,0,1.5-0.4,1.9-0.9c0.4-0.6,0.5-1.2,0.2-1.9v0c-2.4-6.6-7.7-11.8-14.4-13.9c-0.3-0.1-0.7-0.1-1,0.1c-3.7,1.8-8.1,1.8-11.8,0    C28.5,71.1,28.1,71.1,27.8,71.2z"/></g></g><g><g><path d="M55,49.7c-0.4,0-0.8-0.2-1.1-0.5c-0.4-0.5-0.4-1.2,0-1.7l1.6-2.2h-0.4c-2.8,0-5.2-2.3-5.2-5.2V28c0-2.8,2.3-5.2,5.2-5.2    h23.3c2.8,0,5.2,2.3,5.2,5.2v12.2c0,2.8-2.3,5.2-5.2,5.2H65.8l-10.3,4.3C55.4,49.7,55.2,49.7,55,49.7z M55.2,24.5    c-1.9,0-3.5,1.6-3.5,3.5v12.2c0,1.9,1.6,3.5,3.5,3.5h3.6l-3,4.1l9.7-4.1h12.9c1.9,0,3.5-1.6,3.5-3.5V28c0-1.9-1.6-3.5-3.5-3.5    H55.2z"/></g></g><g><rect x="57.2" y="28.7" width="19.4" height="1.6"/></g><g><rect x="57.2" y="33.2" width="19.4" height="1.6"/></g><g><rect x="57.2" y="37.7" width="13.4" height="1.6"/></g><text x="0" y="115" fill="#000000" font-size="5px" font-weight="bold" font-family="'Helvetica Neue', Helvetica, Arial-Unicode, Arial, Sans-serif">Created by Caitlin George</text><text x="0" y="120" fill="#000000" font-size="5px" font-weight="bold" font-family="'Helvetica Neue', Helvetica, Arial-Unicode, Arial, Sans-serif">from the Noun Project</text></svg>