<svg xmlns="http://www.w3.org/2000/svg" viewBox="0 0 64 80" x="0px" y="0px"><g><path d="M53,31c-2.757,0-5,2.691-5,6s2.243,6,5,6,5-2.691,5-6S55.757,31,53,31Zm0,10c-1.654,0-3-1.794-3-4s1.346-4,3-4,3,1.794,3,4S54.654,41,53,41Z"/><path d="M61,43H60V9.444A3.987,3.987,0,0,0,58,2H6A3.987,3.987,0,0,0,4,9.444V54a1,1,0,0,0,1,1H31v2H30a1,1,0,0,0-.949.684l-1,3A1,1,0,0,0,29,62h6a1,1,0,0,0,.949-1.316l-1-3A1,1,0,0,0,34,57H33V55H44v6a1,1,0,0,0,1,1H61a1,1,0,0,0,1-1V44A1,1,0,0,0,61,43ZM33.613,60H30.387l.334-1h2.558ZM6,4H58a2,2,0,0,1,0,4H6A2,2,0,0,1,6,4ZM6,53V10H58V43H45.167l-8.878-3.052a2.633,2.633,0,0,0-3.406,1.333,2.5,2.5,0,0,0,1.375,3.357l9.46,3.915.282.4V53Zm54,7H46V48.636a1,1,0,0,0-.183-.576l-.631-.9a1.011,1.011,0,0,0-.436-.348l-9.723-4.024a.552.552,0,0,1-.363-.5.527.527,0,0,1,.049-.2.641.641,0,0,1,.866-.273l9.1,3.13A1.021,1.021,0,0,0,45,45H60Z"/><rect x="41" y="13" width="15" height="2"/><rect x="41" y="17" width="15" height="2"/><rect x="41" y="21" width="15" height="2"/><rect x="41" y="25" width="15" height="2"/><path d="M24,41v2h5a1,1,0,0,0,1-1V37a1,1,0,0,0-.152-.53L28.3,33.995a12.965,12.965,0,0,0,1.824-18.13L32.2,15H38V13H32a1,1,0,0,0-.385.077l-2.973,1.239a13,13,0,1,0-1.981,20.828L28,37.287V41ZM9,24a10.98,10.98,0,0,1,17.554-8.814l-6.939,2.891.77,1.846,7.8-3.249A10.937,10.937,0,0,1,30.949,23H20a1,1,0,0,0-1,1V34.949A11.01,11.01,0,0,1,9,24ZM21,34.949V25h9.949a10.972,10.972,0,0,1-3.724,7.274l-2.377-3.8-1.7,1.06,2.45,3.92A10.906,10.906,0,0,1,21,34.949Z"/><rect x="7" y="38" width="16" height="2"/><rect x="7" y="42" width="16" height="2"/><rect x="7" y="46" width="16" height="2"/><rect x="7" y="50" width="16" height="2"/><rect x="35" y="29" width="9" height="2"/><rect x="35" y="32" width="9" height="2"/><rect x="35" y="35" width="9" height="2"/><rect x="25" y="44" width="7" height="2"/><rect x="25" y="47" width="7" height="2"/><rect x="25" y="50" width="7" height="2"/><rect x="57" y="57" width="2" height="2"/><rect x="54" y="57" width="2" height="2"/><rect x="57" y="54" width="2" height="2"/></g><text x="0" y="79" fill="#000000" font-size="5px" font-weight="bold" font-family="'Helvetica Neue', Helvetica, Arial-Unicode, Arial, Sans-serif">Created by Phonlaphat Thongsriphong</text><text x="0" y="84" fill="#000000" font-size="5px" font-weight="bold" font-family="'Helvetica Neue', Helvetica, Arial-Unicode, Arial, Sans-serif">from the Noun Project</text></svg>